<?xml version="1.0" encoding="UTF-8" standalone="no"?>
<svg
   xmlns:dc="http://purl.org/dc/elements/1.1/"
   xmlns:cc="http://creativecommons.org/ns#"
   xmlns:rdf="http://www.w3.org/1999/02/22-rdf-syntax-ns#"
   xmlns:svg="http://www.w3.org/2000/svg"
   xmlns="http://www.w3.org/2000/svg"
   xmlns:sodipodi="http://sodipodi.sourceforge.net/DTD/sodipodi-0.dtd"
   xmlns:inkscape="http://www.inkscape.org/namespaces/inkscape"
   version="1.1"
   id="svg10"
   xml:space="preserve"
   width="240"
   height="144"
   viewBox="0 0 240 144"
   sodipodi:docname="heterophily-example.svg"
   inkscape:version="1.0.2 (e86c8708, 2021-01-15)"><metadata
     id="metadata16"><rdf:RDF><cc:Work
         rdf:about=""><dc:format>image/svg+xml</dc:format><dc:type
           rdf:resource="http://purl.org/dc/dcmitype/StillImage" /><dc:title></dc:title></cc:Work></rdf:RDF></metadata><defs
     id="defs14" /><sodipodi:namedview
     pagecolor="#ffffff"
     bordercolor="#666666"
     borderopacity="1"
     objecttolerance="10"
     gridtolerance="10"
     guidetolerance="10"
     inkscape:pageopacity="0"
     inkscape:pageshadow="2"
     inkscape:window-width="2231"
     inkscape:window-height="1217"
     id="namedview12"
     showgrid="false"
     inkscape:zoom="4.7291667"
     inkscape:cx="120"
     inkscape:cy="72"
     inkscape:window-x="0"
     inkscape:window-y="25"
     inkscape:window-maximized="0"
     inkscape:current-layer="g18" /><g
     id="g18"
     inkscape:groupmode="layer"
     inkscape:label="example3"
     transform="matrix(1.3333333,0,0,1.3333333,0,3.6e-6)"><g
       id="g20"><path
         d="M 43.691,64.883 72.961,53.535"
         style="fill:none;stroke:#000000;stroke-width:0.36;stroke-linecap:square;stroke-linejoin:miter;stroke-miterlimit:3.25;stroke-dasharray:none;stroke-opacity:0.7"
         id="path22" /><path
         d="M 43.691,64.883 33.309,47.004"
         style="fill:none;stroke:#000000;stroke-width:0.36;stroke-linecap:square;stroke-linejoin:miter;stroke-miterlimit:3.25;stroke-dasharray:none;stroke-opacity:0.7"
         id="path24" /><path
         d="m 43.691,64.883 21.504,8.105"
         style="fill:none;stroke:#000000;stroke-width:0.36;stroke-linecap:square;stroke-linejoin:miter;stroke-miterlimit:3.25;stroke-dasharray:none;stroke-opacity:0.7"
         id="path26" /><path
         d="M 43.691,64.883 23.969,60.719"
         style="fill:none;stroke:#000000;stroke-width:0.36;stroke-linecap:square;stroke-linejoin:miter;stroke-miterlimit:3.25;stroke-dasharray:none;stroke-opacity:0.7"
         id="path28" /><path
         d="M 43.691,64.883 26.844,81.168"
         style="fill:none;stroke:#000000;stroke-width:0.36;stroke-linecap:square;stroke-linejoin:miter;stroke-miterlimit:3.25;stroke-dasharray:none;stroke-opacity:0.7"
         id="path30" /><path
         d="m 151.531,61.457 0.192,-14.574"
         style="fill:none;stroke:#000000;stroke-width:0.36;stroke-linecap:square;stroke-linejoin:miter;stroke-miterlimit:3.25;stroke-dasharray:none;stroke-opacity:0.7"
         id="path32" /><path
         d="m 151.531,61.457 -7.429,-4.695"
         style="fill:none;stroke:#000000;stroke-width:0.36;stroke-linecap:square;stroke-linejoin:miter;stroke-miterlimit:3.25;stroke-dasharray:none;stroke-opacity:0.7"
         id="path34" /><path
         d="M 151.531,61.457 119.859,46.133"
         style="fill:none;stroke:#000000;stroke-width:0.36;stroke-linecap:square;stroke-linejoin:miter;stroke-miterlimit:3.25;stroke-dasharray:none;stroke-opacity:0.7"
         id="path36" /><path
         d="M 151.531,61.457 132.422,73.98"
         style="fill:none;stroke:#000000;stroke-width:0.36;stroke-linecap:square;stroke-linejoin:miter;stroke-miterlimit:3.25;stroke-dasharray:none;stroke-opacity:0.7"
         id="path38" /><path
         d="m 151.531,61.457 20.645,-9.109"
         style="fill:none;stroke:#000000;stroke-width:0.36;stroke-linecap:square;stroke-linejoin:miter;stroke-miterlimit:3.25;stroke-dasharray:none;stroke-opacity:0.7"
         id="path40" /><path
         d="M 151.531,61.457 172.488,76.52"
         style="fill:none;stroke:#000000;stroke-width:0.36;stroke-linecap:square;stroke-linejoin:miter;stroke-miterlimit:3.25;stroke-dasharray:none;stroke-opacity:0.7"
         id="path42" /><path
         d="M 72.961,53.535 49.406,76.547"
         style="fill:none;stroke:#000000;stroke-width:0.36;stroke-linecap:square;stroke-linejoin:miter;stroke-miterlimit:3.25;stroke-dasharray:none;stroke-opacity:0.7"
         id="path44" /><path
         d="M 72.961,53.535 65.195,72.988"
         style="fill:none;stroke:#000000;stroke-width:0.36;stroke-linecap:square;stroke-linejoin:miter;stroke-miterlimit:3.25;stroke-dasharray:none;stroke-opacity:0.7"
         id="path46" /><path
         d="M 72.961,53.535 48.762,42.156"
         style="fill:none;stroke:#000000;stroke-width:0.36;stroke-linecap:square;stroke-linejoin:miter;stroke-miterlimit:3.25;stroke-dasharray:none;stroke-opacity:0.7"
         id="path48" /><path
         d="m 72.961,53.535 46.898,-7.402"
         style="fill:none;stroke:#000000;stroke-width:0.36;stroke-linecap:square;stroke-linejoin:miter;stroke-miterlimit:3.25;stroke-dasharray:none;stroke-opacity:0.7"
         id="path50" /><path
         d="M 72.961,53.535 83.23,37.461"
         style="fill:none;stroke:#000000;stroke-width:0.36;stroke-linecap:square;stroke-linejoin:miter;stroke-miterlimit:3.25;stroke-dasharray:none;stroke-opacity:0.7"
         id="path52" /><path
         d="M 72.961,53.535 47.453,34.445"
         style="fill:none;stroke:#000000;stroke-width:0.36;stroke-linecap:square;stroke-linejoin:miter;stroke-miterlimit:3.25;stroke-dasharray:none;stroke-opacity:0.7"
         id="path54" /><path
         d="M 72.961,53.535 62.535,37.906"
         style="fill:none;stroke:#000000;stroke-width:0.36;stroke-linecap:square;stroke-linejoin:miter;stroke-miterlimit:3.25;stroke-dasharray:none;stroke-opacity:0.7"
         id="path56" /><path
         d="M 72.961,53.535 102.797,67"
         style="fill:none;stroke:#000000;stroke-width:0.36;stroke-linecap:square;stroke-linejoin:miter;stroke-miterlimit:3.25;stroke-dasharray:none;stroke-opacity:0.7"
         id="path58" /><path
         d="M 72.961,53.535 84.676,78.617"
         style="fill:none;stroke:#000000;stroke-width:0.36;stroke-linecap:square;stroke-linejoin:miter;stroke-miterlimit:3.25;stroke-dasharray:none;stroke-opacity:0.7"
         id="path60" /><path
         d="M 72.961,53.535 64.336,24.605"
         style="fill:none;stroke:#000000;stroke-width:0.36;stroke-linecap:square;stroke-linejoin:miter;stroke-miterlimit:3.25;stroke-dasharray:none;stroke-opacity:0.7"
         id="path62" /><path
         d="M 33.309,47.004 48.762,42.156"
         style="fill:none;stroke:#000000;stroke-width:0.36;stroke-linecap:square;stroke-linejoin:miter;stroke-miterlimit:3.25;stroke-dasharray:none;stroke-opacity:0.7"
         id="path64" /><path
         d="M 33.309,47.004 47.453,34.445"
         style="fill:none;stroke:#000000;stroke-width:0.36;stroke-linecap:square;stroke-linejoin:miter;stroke-miterlimit:3.25;stroke-dasharray:none;stroke-opacity:0.7"
         id="path66" /><path
         d="M 49.406,76.547 26.844,81.168"
         style="fill:none;stroke:#000000;stroke-width:0.36;stroke-linecap:square;stroke-linejoin:miter;stroke-miterlimit:3.25;stroke-dasharray:none;stroke-opacity:0.7"
         id="path68" /><path
         d="m 151.723,46.883 -7.621,9.879"
         style="fill:none;stroke:#000000;stroke-width:0.36;stroke-linecap:square;stroke-linejoin:miter;stroke-miterlimit:3.25;stroke-dasharray:none;stroke-opacity:0.7"
         id="path70" /><path
         d="m 151.723,46.883 20.453,5.465"
         style="fill:none;stroke:#000000;stroke-width:0.36;stroke-linecap:square;stroke-linejoin:miter;stroke-miterlimit:3.25;stroke-dasharray:none;stroke-opacity:0.7"
         id="path72" /><path
         d="M 151.723,46.883 117.941,34.672"
         style="fill:none;stroke:#000000;stroke-width:0.36;stroke-linecap:square;stroke-linejoin:miter;stroke-miterlimit:3.25;stroke-dasharray:none;stroke-opacity:0.7"
         id="path74" /><path
         d="m 151.723,46.883 4.203,-20.895"
         style="fill:none;stroke:#000000;stroke-width:0.36;stroke-linecap:square;stroke-linejoin:miter;stroke-miterlimit:3.25;stroke-dasharray:none;stroke-opacity:0.7"
         id="path76" /><path
         d="m 151.723,46.883 5.668,25.523"
         style="fill:none;stroke:#000000;stroke-width:0.36;stroke-linecap:square;stroke-linejoin:miter;stroke-miterlimit:3.25;stroke-dasharray:none;stroke-opacity:0.7"
         id="path78" /><path
         d="m 65.195,72.988 19.481,5.629"
         style="fill:none;stroke:#000000;stroke-width:0.36;stroke-linecap:square;stroke-linejoin:miter;stroke-miterlimit:3.25;stroke-dasharray:none;stroke-opacity:0.7"
         id="path80" /><path
         d="M 144.102,56.762 132.422,73.98"
         style="fill:none;stroke:#000000;stroke-width:0.36;stroke-linecap:square;stroke-linejoin:miter;stroke-miterlimit:3.25;stroke-dasharray:none;stroke-opacity:0.7"
         id="path82" /><path
         d="M 144.102,56.762 142.488,37.52"
         style="fill:none;stroke:#000000;stroke-width:0.36;stroke-linecap:square;stroke-linejoin:miter;stroke-miterlimit:3.25;stroke-dasharray:none;stroke-opacity:0.7"
         id="path84" /><path
         d="M 48.762,42.156 23.969,60.719"
         style="fill:none;stroke:#000000;stroke-width:0.36;stroke-linecap:square;stroke-linejoin:miter;stroke-miterlimit:3.25;stroke-dasharray:none;stroke-opacity:0.7"
         id="path86" /><path
         d="M 48.762,42.156 83.23,37.461"
         style="fill:none;stroke:#000000;stroke-width:0.36;stroke-linecap:square;stroke-linejoin:miter;stroke-miterlimit:3.25;stroke-dasharray:none;stroke-opacity:0.7"
         id="path88" /><path
         d="M 48.762,42.156 30.332,26.66"
         style="fill:none;stroke:#000000;stroke-width:0.36;stroke-linecap:square;stroke-linejoin:miter;stroke-miterlimit:3.25;stroke-dasharray:none;stroke-opacity:0.7"
         id="path90" /><path
         d="M 48.762,42.156 46.93,19.484"
         style="fill:none;stroke:#000000;stroke-width:0.36;stroke-linecap:square;stroke-linejoin:miter;stroke-miterlimit:3.25;stroke-dasharray:none;stroke-opacity:0.7"
         id="path92" /><path
         d="M 23.969,60.719 7.512,77.156"
         style="fill:none;stroke:#000000;stroke-width:0.36;stroke-linecap:square;stroke-linejoin:miter;stroke-miterlimit:3.25;stroke-dasharray:none;stroke-opacity:0.7"
         id="path94" /><path
         d="M 119.859,46.133 142.488,37.52"
         style="fill:none;stroke:#000000;stroke-width:0.36;stroke-linecap:square;stroke-linejoin:miter;stroke-miterlimit:3.25;stroke-dasharray:none;stroke-opacity:0.7"
         id="path96" /><path
         d="M 119.859,46.133 138.074,23.551"
         style="fill:none;stroke:#000000;stroke-width:0.36;stroke-linecap:square;stroke-linejoin:miter;stroke-miterlimit:3.25;stroke-dasharray:none;stroke-opacity:0.7"
         id="path98" /><path
         d="m 83.23,37.461 34.711,-2.789"
         style="fill:none;stroke:#000000;stroke-width:0.36;stroke-linecap:square;stroke-linejoin:miter;stroke-miterlimit:3.25;stroke-dasharray:none;stroke-opacity:0.7"
         id="path100" /><path
         d="M 47.453,34.445 30.332,26.66"
         style="fill:none;stroke:#000000;stroke-width:0.36;stroke-linecap:square;stroke-linejoin:miter;stroke-miterlimit:3.25;stroke-dasharray:none;stroke-opacity:0.7"
         id="path102" /><path
         d="M 47.453,34.445 46.93,19.484"
         style="fill:none;stroke:#000000;stroke-width:0.36;stroke-linecap:square;stroke-linejoin:miter;stroke-miterlimit:3.25;stroke-dasharray:none;stroke-opacity:0.7"
         id="path104" /><path
         d="m 47.453,34.445 15.082,3.461"
         style="fill:none;stroke:#000000;stroke-width:0.36;stroke-linecap:square;stroke-linejoin:miter;stroke-miterlimit:3.25;stroke-dasharray:none;stroke-opacity:0.7"
         id="path106" /><path
         d="M 132.422,73.98 102.797,67"
         style="fill:none;stroke:#000000;stroke-width:0.36;stroke-linecap:square;stroke-linejoin:miter;stroke-miterlimit:3.25;stroke-dasharray:none;stroke-opacity:0.7"
         id="path108" /><path
         d="m 132.422,73.98 24.969,-1.574"
         style="fill:none;stroke:#000000;stroke-width:0.36;stroke-linecap:square;stroke-linejoin:miter;stroke-miterlimit:3.25;stroke-dasharray:none;stroke-opacity:0.7"
         id="path110" /><path
         d="M 132.422,73.98 110.363,88.516"
         style="fill:none;stroke:#000000;stroke-width:0.36;stroke-linecap:square;stroke-linejoin:miter;stroke-miterlimit:3.25;stroke-dasharray:none;stroke-opacity:0.7"
         id="path112" /><path
         d="m 46.93,19.484 17.406,5.121"
         style="fill:none;stroke:#000000;stroke-width:0.36;stroke-linecap:square;stroke-linejoin:miter;stroke-miterlimit:3.25;stroke-dasharray:none;stroke-opacity:0.7"
         id="path114" /><path
         d="M 26.844,81.168 7.512,77.156"
         style="fill:none;stroke:#000000;stroke-width:0.36;stroke-linecap:square;stroke-linejoin:miter;stroke-miterlimit:3.25;stroke-dasharray:none;stroke-opacity:0.7"
         id="path116" /><path
         d="M 142.488,37.52 155.926,25.988"
         style="fill:none;stroke:#000000;stroke-width:0.36;stroke-linecap:square;stroke-linejoin:miter;stroke-miterlimit:3.25;stroke-dasharray:none;stroke-opacity:0.7"
         id="path118" /><path
         d="M 155.926,25.988 138.074,23.551"
         style="fill:none;stroke:#000000;stroke-width:0.36;stroke-linecap:square;stroke-linejoin:miter;stroke-miterlimit:3.25;stroke-dasharray:none;stroke-opacity:0.7"
         id="path120" /><path
         d="m 84.676,78.617 25.687,9.899"
         style="fill:none;stroke:#000000;stroke-width:0.36;stroke-linecap:square;stroke-linejoin:miter;stroke-miterlimit:3.25;stroke-dasharray:none;stroke-opacity:0.7"
         id="path122" /><path
         d="m 157.391,72.406 15.097,4.114"
         style="fill:none;stroke:#000000;stroke-width:0.36;stroke-linecap:square;stroke-linejoin:miter;stroke-miterlimit:3.25;stroke-dasharray:none;stroke-opacity:0.7"
         id="path124" /><path
         d="m 47.602,64.883 c 0,-1.035 -0.411,-2.031 -1.145,-2.766 -0.734,-0.73 -1.73,-1.144 -2.766,-1.144 -1.039,0 -2.035,0.414 -2.765,1.144 -0.735,0.735 -1.149,1.731 -1.149,2.766 0,1.039 0.414,2.035 1.149,2.765 0.73,0.735 1.726,1.149 2.765,1.149 1.036,0 2.032,-0.414 2.766,-1.149 0.734,-0.73 1.145,-1.726 1.145,-2.765 z"
         style="fill:#7570b3;fill-opacity:1;fill-rule:evenodd;stroke:none"
         id="path126" /><path
         d="m 47.602,64.883 c 0,-1.035 -0.411,-2.031 -1.145,-2.766 -0.734,-0.73 -1.73,-1.144 -2.766,-1.144 -1.039,0 -2.035,0.414 -2.765,1.144 -0.735,0.735 -1.149,1.731 -1.149,2.766 0,1.039 0.414,2.035 1.149,2.765 0.73,0.735 1.726,1.149 2.765,1.149 1.036,0 2.032,-0.414 2.766,-1.149 0.734,-0.73 1.145,-1.726 1.145,-2.765 z"
         style="fill:none;stroke:#000000;stroke-width:0.36;stroke-linecap:square;stroke-linejoin:miter;stroke-miterlimit:3.25;stroke-dasharray:none;stroke-opacity:0.7"
         id="path128" /><path
         d="m 155.441,61.457 c 0,-1.039 -0.41,-2.035 -1.144,-2.766 -0.735,-0.734 -1.727,-1.148 -2.766,-1.148 -1.039,0 -2.031,0.414 -2.765,1.148 -0.735,0.731 -1.145,1.727 -1.145,2.766 0,1.035 0.41,2.031 1.145,2.766 0.734,0.73 1.726,1.144 2.765,1.144 1.039,0 2.031,-0.414 2.766,-1.144 0.734,-0.735 1.144,-1.731 1.144,-2.766 z"
         style="fill:#1b9e77;fill-opacity:1;fill-rule:evenodd;stroke:none"
         id="path130" /><path
         d="m 155.441,61.457 c 0,-1.039 -0.41,-2.035 -1.144,-2.766 -0.735,-0.734 -1.727,-1.148 -2.766,-1.148 -1.039,0 -2.031,0.414 -2.765,1.148 -0.735,0.731 -1.145,1.727 -1.145,2.766 0,1.035 0.41,2.031 1.145,2.766 0.734,0.73 1.726,1.144 2.765,1.144 1.039,0 2.031,-0.414 2.766,-1.144 0.734,-0.735 1.144,-1.731 1.144,-2.766 z"
         style="fill:none;stroke:#000000;stroke-width:0.36;stroke-linecap:square;stroke-linejoin:miter;stroke-miterlimit:3.25;stroke-dasharray:none;stroke-opacity:0.7"
         id="path132" /><path
         d="m 76.875,53.535 c 0,-1.035 -0.414,-2.031 -1.148,-2.765 -0.735,-0.731 -1.727,-1.145 -2.766,-1.145 -1.035,0 -2.031,0.414 -2.766,1.145 -0.734,0.734 -1.144,1.73 -1.144,2.765 0,1.039 0.41,2.035 1.144,2.766 0.735,0.734 1.731,1.148 2.766,1.148 1.039,0 2.031,-0.414 2.766,-1.148 0.734,-0.731 1.148,-1.727 1.148,-2.766 z"
         style="fill:#d95f02;fill-opacity:1;fill-rule:evenodd;stroke:none"
         id="path134" /><path
         d="m 76.875,53.535 c 0,-1.035 -0.414,-2.031 -1.148,-2.765 -0.735,-0.731 -1.727,-1.145 -2.766,-1.145 -1.035,0 -2.031,0.414 -2.766,1.145 -0.734,0.734 -1.144,1.73 -1.144,2.765 0,1.039 0.41,2.035 1.144,2.766 0.735,0.734 1.731,1.148 2.766,1.148 1.039,0 2.031,-0.414 2.766,-1.148 0.734,-0.731 1.148,-1.727 1.148,-2.766 z"
         style="fill:none;stroke:#000000;stroke-width:0.36;stroke-linecap:square;stroke-linejoin:miter;stroke-miterlimit:3.25;stroke-dasharray:none;stroke-opacity:0.7"
         id="path136" /><path
         d="m 37.223,47.004 c 0,-1.039 -0.414,-2.035 -1.149,-2.77 -0.73,-0.73 -1.726,-1.144 -2.765,-1.144 -1.036,0 -2.032,0.414 -2.766,1.144 -0.731,0.735 -1.145,1.731 -1.145,2.77 0,1.035 0.414,2.031 1.145,2.766 0.734,0.73 1.73,1.144 2.766,1.144 1.039,0 2.035,-0.414 2.765,-1.144 0.735,-0.735 1.149,-1.731 1.149,-2.766 z"
         style="fill:#d95f02;fill-opacity:1;fill-rule:evenodd;stroke:none"
         id="path138" /><path
         d="m 37.223,47.004 c 0,-1.039 -0.414,-2.035 -1.149,-2.77 -0.73,-0.73 -1.726,-1.144 -2.765,-1.144 -1.036,0 -2.032,0.414 -2.766,1.144 -0.731,0.735 -1.145,1.731 -1.145,2.77 0,1.035 0.414,2.031 1.145,2.766 0.734,0.73 1.73,1.144 2.766,1.144 1.039,0 2.035,-0.414 2.765,-1.144 0.735,-0.735 1.149,-1.731 1.149,-2.766 z"
         style="fill:none;stroke:#000000;stroke-width:0.36;stroke-linecap:square;stroke-linejoin:miter;stroke-miterlimit:3.25;stroke-dasharray:none;stroke-opacity:0.7"
         id="path140" /><path
         d="m 53.316,76.547 c 0,-1.039 -0.414,-2.035 -1.144,-2.766 -0.734,-0.734 -1.731,-1.148 -2.766,-1.148 -1.039,0 -2.035,0.414 -2.769,1.148 -0.731,0.731 -1.145,1.727 -1.145,2.766 0,1.035 0.414,2.031 1.145,2.765 0.734,0.731 1.73,1.145 2.769,1.145 1.035,0 2.032,-0.414 2.766,-1.145 0.73,-0.734 1.144,-1.73 1.144,-2.765 z"
         style="fill:#7570b3;fill-opacity:1;fill-rule:evenodd;stroke:none"
         id="path142" /><path
         d="m 53.316,76.547 c 0,-1.039 -0.414,-2.035 -1.144,-2.766 -0.734,-0.734 -1.731,-1.148 -2.766,-1.148 -1.039,0 -2.035,0.414 -2.769,1.148 -0.731,0.731 -1.145,1.727 -1.145,2.766 0,1.035 0.414,2.031 1.145,2.765 0.734,0.731 1.73,1.145 2.769,1.145 1.035,0 2.032,-0.414 2.766,-1.145 0.73,-0.734 1.144,-1.73 1.144,-2.765 z"
         style="fill:none;stroke:#000000;stroke-width:0.36;stroke-linecap:square;stroke-linejoin:miter;stroke-miterlimit:3.25;stroke-dasharray:none;stroke-opacity:0.7"
         id="path144" /><path
         d="m 155.637,46.883 c 0,-1.039 -0.414,-2.035 -1.149,-2.766 -0.73,-0.734 -1.726,-1.148 -2.765,-1.148 -1.035,0 -2.032,0.414 -2.766,1.148 -0.734,0.731 -1.145,1.727 -1.145,2.766 0,1.035 0.411,2.031 1.145,2.765 0.734,0.731 1.731,1.145 2.766,1.145 1.039,0 2.035,-0.414 2.765,-1.145 0.735,-0.734 1.149,-1.73 1.149,-2.765 z"
         style="fill:#1b9e77;fill-opacity:1;fill-rule:evenodd;stroke:none"
         id="path146" /><path
         d="m 155.637,46.883 c 0,-1.039 -0.414,-2.035 -1.149,-2.766 -0.73,-0.734 -1.726,-1.148 -2.765,-1.148 -1.035,0 -2.032,0.414 -2.766,1.148 -0.734,0.731 -1.145,1.727 -1.145,2.766 0,1.035 0.411,2.031 1.145,2.765 0.734,0.731 1.731,1.145 2.766,1.145 1.039,0 2.035,-0.414 2.765,-1.145 0.735,-0.734 1.149,-1.73 1.149,-2.765 z"
         style="fill:none;stroke:#000000;stroke-width:0.36;stroke-linecap:square;stroke-linejoin:miter;stroke-miterlimit:3.25;stroke-dasharray:none;stroke-opacity:0.7"
         id="path148" /><path
         d="m 69.105,72.988 c 0,-1.035 -0.41,-2.031 -1.144,-2.765 -0.734,-0.735 -1.727,-1.145 -2.766,-1.145 -1.039,0 -2.031,0.41 -2.765,1.145 -0.735,0.734 -1.145,1.73 -1.145,2.765 0,1.039 0.41,2.032 1.145,2.766 0.734,0.734 1.726,1.148 2.765,1.148 1.039,0 2.032,-0.414 2.766,-1.148 0.734,-0.734 1.144,-1.727 1.144,-2.766 z"
         style="fill:#d95f02;fill-opacity:1;fill-rule:evenodd;stroke:none"
         id="path150" /><path
         d="m 69.105,72.988 c 0,-1.035 -0.41,-2.031 -1.144,-2.765 -0.734,-0.735 -1.727,-1.145 -2.766,-1.145 -1.039,0 -2.031,0.41 -2.765,1.145 -0.735,0.734 -1.145,1.73 -1.145,2.765 0,1.039 0.41,2.032 1.145,2.766 0.734,0.734 1.726,1.148 2.765,1.148 1.039,0 2.032,-0.414 2.766,-1.148 0.734,-0.734 1.144,-1.727 1.144,-2.766 z"
         style="fill:none;stroke:#000000;stroke-width:0.36;stroke-linecap:square;stroke-linejoin:miter;stroke-miterlimit:3.25;stroke-dasharray:none;stroke-opacity:0.7"
         id="path152" /><path
         d="m 148.016,56.762 c 0,-1.035 -0.414,-2.032 -1.149,-2.766 -0.73,-0.734 -1.726,-1.144 -2.765,-1.144 -1.036,0 -2.032,0.41 -2.766,1.144 -0.731,0.734 -1.145,1.731 -1.145,2.766 0,1.039 0.414,2.031 1.145,2.765 0.734,0.735 1.73,1.149 2.766,1.149 1.039,0 2.035,-0.414 2.765,-1.149 0.735,-0.734 1.149,-1.726 1.149,-2.765 z"
         style="fill:#1b9e77;fill-opacity:1;fill-rule:evenodd;stroke:none"
         id="path154" /><path
         d="m 148.016,56.762 c 0,-1.035 -0.414,-2.032 -1.149,-2.766 -0.73,-0.734 -1.726,-1.144 -2.765,-1.144 -1.036,0 -2.032,0.41 -2.766,1.144 -0.731,0.734 -1.145,1.731 -1.145,2.766 0,1.039 0.414,2.031 1.145,2.765 0.734,0.735 1.73,1.149 2.766,1.149 1.039,0 2.035,-0.414 2.765,-1.149 0.735,-0.734 1.149,-1.726 1.149,-2.765 z"
         style="fill:none;stroke:#000000;stroke-width:0.36;stroke-linecap:square;stroke-linejoin:miter;stroke-miterlimit:3.25;stroke-dasharray:none;stroke-opacity:0.7"
         id="path156" /><path
         d="m 52.672,42.156 c 0,-1.035 -0.41,-2.031 -1.145,-2.765 -0.734,-0.731 -1.73,-1.145 -2.765,-1.145 -1.039,0 -2.035,0.414 -2.766,1.145 -0.734,0.734 -1.148,1.73 -1.148,2.765 0,1.039 0.414,2.035 1.148,2.77 0.731,0.73 1.727,1.144 2.766,1.144 1.035,0 2.031,-0.414 2.765,-1.144 0.735,-0.735 1.145,-1.731 1.145,-2.77 z"
         style="fill:#7570b3;fill-opacity:1;fill-rule:evenodd;stroke:none"
         id="path158" /><path
         d="m 52.672,42.156 c 0,-1.035 -0.41,-2.031 -1.145,-2.765 -0.734,-0.731 -1.73,-1.145 -2.765,-1.145 -1.039,0 -2.035,0.414 -2.766,1.145 -0.734,0.734 -1.148,1.73 -1.148,2.765 0,1.039 0.414,2.035 1.148,2.77 0.731,0.73 1.727,1.144 2.766,1.144 1.035,0 2.031,-0.414 2.765,-1.144 0.735,-0.735 1.145,-1.731 1.145,-2.77 z"
         style="fill:none;stroke:#000000;stroke-width:0.36;stroke-linecap:square;stroke-linejoin:miter;stroke-miterlimit:3.25;stroke-dasharray:none;stroke-opacity:0.7"
         id="path160" /><path
         d="m 27.879,60.719 c 0,-1.039 -0.41,-2.035 -1.145,-2.766 -0.734,-0.734 -1.726,-1.148 -2.765,-1.148 -1.035,0 -2.031,0.414 -2.766,1.148 -0.734,0.731 -1.144,1.727 -1.144,2.766 0,1.035 0.41,2.031 1.144,2.765 0.735,0.735 1.731,1.145 2.766,1.145 1.039,0 2.031,-0.41 2.765,-1.145 0.735,-0.734 1.145,-1.73 1.145,-2.765 z"
         style="fill:#d95f02;fill-opacity:1;fill-rule:evenodd;stroke:none"
         id="path162" /><path
         d="m 27.879,60.719 c 0,-1.039 -0.41,-2.035 -1.145,-2.766 -0.734,-0.734 -1.726,-1.148 -2.765,-1.148 -1.035,0 -2.031,0.414 -2.766,1.148 -0.734,0.731 -1.144,1.727 -1.144,2.766 0,1.035 0.41,2.031 1.144,2.765 0.735,0.735 1.731,1.145 2.766,1.145 1.039,0 2.031,-0.41 2.765,-1.145 0.735,-0.734 1.145,-1.73 1.145,-2.765 z"
         style="fill:none;stroke:#000000;stroke-width:0.36;stroke-linecap:square;stroke-linejoin:miter;stroke-miterlimit:3.25;stroke-dasharray:none;stroke-opacity:0.7"
         id="path164" /><path
         d="m 123.77,46.133 c 0,-1.035 -0.411,-2.031 -1.145,-2.766 -0.734,-0.734 -1.73,-1.144 -2.766,-1.144 -1.039,0 -2.035,0.41 -2.765,1.144 -0.735,0.735 -1.149,1.731 -1.149,2.766 0,1.039 0.414,2.035 1.149,2.765 0.73,0.735 1.726,1.149 2.765,1.149 1.036,0 2.032,-0.414 2.766,-1.149 0.734,-0.73 1.145,-1.726 1.145,-2.765 z"
         style="fill:#1b9e77;fill-opacity:1;fill-rule:evenodd;stroke:none"
         id="path166" /><path
         d="m 123.77,46.133 c 0,-1.035 -0.411,-2.031 -1.145,-2.766 -0.734,-0.734 -1.73,-1.144 -2.766,-1.144 -1.039,0 -2.035,0.41 -2.765,1.144 -0.735,0.735 -1.149,1.731 -1.149,2.766 0,1.039 0.414,2.035 1.149,2.765 0.73,0.735 1.726,1.149 2.765,1.149 1.036,0 2.032,-0.414 2.766,-1.149 0.734,-0.73 1.145,-1.726 1.145,-2.765 z"
         style="fill:none;stroke:#000000;stroke-width:0.36;stroke-linecap:square;stroke-linejoin:miter;stroke-miterlimit:3.25;stroke-dasharray:none;stroke-opacity:0.7"
         id="path168" /><path
         d="m 87.145,37.461 c 0,-1.039 -0.415,-2.031 -1.145,-2.766 -0.734,-0.734 -1.73,-1.144 -2.77,-1.144 -1.035,0 -2.031,0.41 -2.765,1.144 -0.731,0.735 -1.145,1.727 -1.145,2.766 0,1.039 0.414,2.031 1.145,2.766 0.734,0.734 1.73,1.144 2.765,1.144 1.04,0 2.036,-0.41 2.77,-1.144 0.73,-0.735 1.145,-1.727 1.145,-2.766 z"
         style="fill:#7570b3;fill-opacity:1;fill-rule:evenodd;stroke:none"
         id="path170" /><path
         d="m 87.145,37.461 c 0,-1.039 -0.415,-2.031 -1.145,-2.766 -0.734,-0.734 -1.73,-1.144 -2.77,-1.144 -1.035,0 -2.031,0.41 -2.765,1.144 -0.731,0.735 -1.145,1.727 -1.145,2.766 0,1.039 0.414,2.031 1.145,2.766 0.734,0.734 1.73,1.144 2.765,1.144 1.04,0 2.036,-0.41 2.77,-1.144 0.73,-0.735 1.145,-1.727 1.145,-2.766 z"
         style="fill:none;stroke:#000000;stroke-width:0.36;stroke-linecap:square;stroke-linejoin:miter;stroke-miterlimit:3.25;stroke-dasharray:none;stroke-opacity:0.7"
         id="path172" /><path
         d="m 51.363,34.445 c 0,-1.039 -0.41,-2.031 -1.144,-2.765 -0.735,-0.735 -1.727,-1.145 -2.766,-1.145 -1.039,0 -2.031,0.41 -2.765,1.145 -0.735,0.734 -1.145,1.726 -1.145,2.765 0,1.039 0.41,2.032 1.145,2.766 0.734,0.734 1.726,1.144 2.765,1.144 1.039,0 2.031,-0.41 2.766,-1.144 0.734,-0.734 1.144,-1.727 1.144,-2.766 z"
         style="fill:#7570b3;fill-opacity:1;fill-rule:evenodd;stroke:none"
         id="path174" /><path
         d="m 51.363,34.445 c 0,-1.039 -0.41,-2.031 -1.144,-2.765 -0.735,-0.735 -1.727,-1.145 -2.766,-1.145 -1.039,0 -2.031,0.41 -2.765,1.145 -0.735,0.734 -1.145,1.726 -1.145,2.765 0,1.039 0.41,2.032 1.145,2.766 0.734,0.734 1.726,1.144 2.765,1.144 1.039,0 2.031,-0.41 2.766,-1.144 0.734,-0.734 1.144,-1.727 1.144,-2.766 z"
         style="fill:none;stroke:#000000;stroke-width:0.36;stroke-linecap:square;stroke-linejoin:miter;stroke-miterlimit:3.25;stroke-dasharray:none;stroke-opacity:0.7"
         id="path176" /><path
         d="m 34.246,26.66 c 0,-1.035 -0.414,-2.031 -1.148,-2.765 -0.731,-0.735 -1.727,-1.145 -2.766,-1.145 -1.035,0 -2.031,0.41 -2.766,1.145 -0.73,0.734 -1.144,1.73 -1.144,2.765 0,1.039 0.414,2.031 1.144,2.766 0.735,0.734 1.731,1.148 2.766,1.148 1.039,0 2.035,-0.414 2.766,-1.148 0.734,-0.735 1.148,-1.727 1.148,-2.766 z"
         style="fill:#d95f02;fill-opacity:1;fill-rule:evenodd;stroke:none"
         id="path178" /><path
         d="m 34.246,26.66 c 0,-1.035 -0.414,-2.031 -1.148,-2.765 -0.731,-0.735 -1.727,-1.145 -2.766,-1.145 -1.035,0 -2.031,0.41 -2.766,1.145 -0.73,0.734 -1.144,1.73 -1.144,2.765 0,1.039 0.414,2.031 1.144,2.766 0.735,0.734 1.731,1.148 2.766,1.148 1.039,0 2.035,-0.414 2.766,-1.148 0.734,-0.735 1.148,-1.727 1.148,-2.766 z"
         style="fill:none;stroke:#000000;stroke-width:0.36;stroke-linecap:square;stroke-linejoin:miter;stroke-miterlimit:3.25;stroke-dasharray:none;stroke-opacity:0.7"
         id="path180" /><path
         d="m 136.332,73.98 c 0,-1.035 -0.41,-2.031 -1.144,-2.765 -0.735,-0.735 -1.727,-1.145 -2.766,-1.145 -1.039,0 -2.031,0.41 -2.766,1.145 -0.734,0.734 -1.144,1.73 -1.144,2.765 0,1.04 0.41,2.032 1.144,2.766 0.735,0.734 1.727,1.149 2.766,1.149 1.039,0 2.031,-0.415 2.766,-1.149 0.734,-0.734 1.144,-1.726 1.144,-2.766 z"
         style="fill:#1b9e77;fill-opacity:1;fill-rule:evenodd;stroke:none"
         id="path182" /><path
         d="m 136.332,73.98 c 0,-1.035 -0.41,-2.031 -1.144,-2.765 -0.735,-0.735 -1.727,-1.145 -2.766,-1.145 -1.039,0 -2.031,0.41 -2.766,1.145 -0.734,0.734 -1.144,1.73 -1.144,2.765 0,1.04 0.41,2.032 1.144,2.766 0.735,0.734 1.727,1.149 2.766,1.149 1.039,0 2.031,-0.415 2.766,-1.149 0.734,-0.734 1.144,-1.726 1.144,-2.766 z"
         style="fill:none;stroke:#000000;stroke-width:0.36;stroke-linecap:square;stroke-linejoin:miter;stroke-miterlimit:3.25;stroke-dasharray:none;stroke-opacity:0.7"
         id="path184" /><path
         d="m 50.844,19.484 c 0,-1.039 -0.414,-2.035 -1.149,-2.765 -0.73,-0.735 -1.726,-1.149 -2.765,-1.149 -1.035,0 -2.032,0.414 -2.766,1.149 -0.734,0.73 -1.144,1.726 -1.144,2.765 0,1.036 0.41,2.032 1.144,2.766 0.734,0.734 1.731,1.145 2.766,1.145 1.039,0 2.035,-0.411 2.765,-1.145 0.735,-0.734 1.149,-1.73 1.149,-2.766 z"
         style="fill:#d95f02;fill-opacity:1;fill-rule:evenodd;stroke:none"
         id="path186" /><path
         d="m 50.844,19.484 c 0,-1.039 -0.414,-2.035 -1.149,-2.765 -0.73,-0.735 -1.726,-1.149 -2.765,-1.149 -1.035,0 -2.032,0.414 -2.766,1.149 -0.734,0.73 -1.144,1.726 -1.144,2.765 0,1.036 0.41,2.032 1.144,2.766 0.734,0.734 1.731,1.145 2.766,1.145 1.039,0 2.035,-0.411 2.765,-1.145 0.735,-0.734 1.149,-1.73 1.149,-2.766 z"
         style="fill:none;stroke:#000000;stroke-width:0.36;stroke-linecap:square;stroke-linejoin:miter;stroke-miterlimit:3.25;stroke-dasharray:none;stroke-opacity:0.7"
         id="path188" /><path
         d="m 176.086,52.348 c 0,-1.039 -0.41,-2.032 -1.145,-2.766 -0.734,-0.734 -1.726,-1.144 -2.765,-1.144 -1.039,0 -2.031,0.41 -2.766,1.144 -0.734,0.734 -1.144,1.727 -1.144,2.766 0,1.039 0.41,2.031 1.144,2.765 0.735,0.735 1.727,1.145 2.766,1.145 1.039,0 2.031,-0.41 2.765,-1.145 0.735,-0.734 1.145,-1.726 1.145,-2.765 z"
         style="fill:#1b9e77;fill-opacity:1;fill-rule:evenodd;stroke:none"
         id="path190" /><path
         d="m 176.086,52.348 c 0,-1.039 -0.41,-2.032 -1.145,-2.766 -0.734,-0.734 -1.726,-1.144 -2.765,-1.144 -1.039,0 -2.031,0.41 -2.766,1.144 -0.734,0.734 -1.144,1.727 -1.144,2.766 0,1.039 0.41,2.031 1.144,2.765 0.735,0.735 1.727,1.145 2.766,1.145 1.039,0 2.031,-0.41 2.765,-1.145 0.735,-0.734 1.145,-1.726 1.145,-2.765 z"
         style="fill:none;stroke:#000000;stroke-width:0.36;stroke-linecap:square;stroke-linejoin:miter;stroke-miterlimit:3.25;stroke-dasharray:none;stroke-opacity:0.7"
         id="path192" /><path
         d="m 66.445,37.906 c 0,-1.039 -0.41,-2.031 -1.144,-2.765 -0.735,-0.735 -1.727,-1.145 -2.766,-1.145 -1.039,0 -2.031,0.41 -2.765,1.145 -0.735,0.734 -1.145,1.726 -1.145,2.765 0,1.039 0.41,2.032 1.145,2.766 0.734,0.734 1.726,1.144 2.765,1.144 1.039,0 2.031,-0.41 2.766,-1.144 0.734,-0.734 1.144,-1.727 1.144,-2.766 z"
         style="fill:#d95f02;fill-opacity:1;fill-rule:evenodd;stroke:none"
         id="path194" /><path
         d="m 66.445,37.906 c 0,-1.039 -0.41,-2.031 -1.144,-2.765 -0.735,-0.735 -1.727,-1.145 -2.766,-1.145 -1.039,0 -2.031,0.41 -2.765,1.145 -0.735,0.734 -1.145,1.726 -1.145,2.765 0,1.039 0.41,2.032 1.145,2.766 0.734,0.734 1.726,1.144 2.765,1.144 1.039,0 2.031,-0.41 2.766,-1.144 0.734,-0.734 1.144,-1.727 1.144,-2.766 z"
         style="fill:none;stroke:#000000;stroke-width:0.36;stroke-linecap:square;stroke-linejoin:miter;stroke-miterlimit:3.25;stroke-dasharray:none;stroke-opacity:0.7"
         id="path196" /><path
         d="m 106.707,67 c 0,-1.035 -0.41,-2.031 -1.145,-2.766 -0.734,-0.734 -1.726,-1.144 -2.765,-1.144 -1.035,0 -2.031,0.41 -2.766,1.144 -0.734,0.735 -1.144,1.731 -1.144,2.766 0,1.039 0.41,2.035 1.144,2.766 0.735,0.734 1.731,1.148 2.766,1.148 1.039,0 2.031,-0.414 2.765,-1.148 0.735,-0.731 1.145,-1.727 1.145,-2.766 z"
         style="fill:#1b9e77;fill-opacity:1;fill-rule:evenodd;stroke:none"
         id="path198" /><path
         d="m 106.707,67 c 0,-1.035 -0.41,-2.031 -1.145,-2.766 -0.734,-0.734 -1.726,-1.144 -2.765,-1.144 -1.035,0 -2.031,0.41 -2.766,1.144 -0.734,0.735 -1.144,1.731 -1.144,2.766 0,1.039 0.41,2.035 1.144,2.766 0.735,0.734 1.731,1.148 2.766,1.148 1.039,0 2.031,-0.414 2.765,-1.148 0.735,-0.731 1.145,-1.727 1.145,-2.766 z"
         style="fill:none;stroke:#000000;stroke-width:0.36;stroke-linecap:square;stroke-linejoin:miter;stroke-miterlimit:3.25;stroke-dasharray:none;stroke-opacity:0.7"
         id="path200" /><path
         d="m 30.754,81.168 c 0,-1.039 -0.41,-2.031 -1.145,-2.766 -0.734,-0.734 -1.73,-1.144 -2.765,-1.144 -1.039,0 -2.032,0.41 -2.766,1.144 -0.734,0.735 -1.144,1.727 -1.144,2.766 0,1.039 0.41,2.031 1.144,2.766 0.734,0.734 1.727,1.144 2.766,1.144 1.035,0 2.031,-0.41 2.765,-1.144 0.735,-0.735 1.145,-1.727 1.145,-2.766 z"
         style="fill:#d95f02;fill-opacity:1;fill-rule:evenodd;stroke:none"
         id="path202" /><path
         d="m 30.754,81.168 c 0,-1.039 -0.41,-2.031 -1.145,-2.766 -0.734,-0.734 -1.73,-1.144 -2.765,-1.144 -1.039,0 -2.032,0.41 -2.766,1.144 -0.734,0.735 -1.144,1.727 -1.144,2.766 0,1.039 0.41,2.031 1.144,2.766 0.734,0.734 1.727,1.144 2.766,1.144 1.035,0 2.031,-0.41 2.765,-1.144 0.735,-0.735 1.145,-1.727 1.145,-2.766 z"
         style="fill:none;stroke:#000000;stroke-width:0.36;stroke-linecap:square;stroke-linejoin:miter;stroke-miterlimit:3.25;stroke-dasharray:none;stroke-opacity:0.7"
         id="path204" /><path
         d="m 146.398,37.52 c 0,-1.036 -0.41,-2.032 -1.144,-2.766 -0.734,-0.734 -1.731,-1.145 -2.766,-1.145 -1.039,0 -2.035,0.411 -2.765,1.145 -0.735,0.734 -1.149,1.73 -1.149,2.766 0,1.039 0.414,2.031 1.149,2.765 0.73,0.735 1.726,1.149 2.765,1.149 1.035,0 2.032,-0.414 2.766,-1.149 0.734,-0.734 1.144,-1.726 1.144,-2.765 z"
         style="fill:#1b9e77;fill-opacity:1;fill-rule:evenodd;stroke:none"
         id="path206" /><path
         d="m 146.398,37.52 c 0,-1.036 -0.41,-2.032 -1.144,-2.766 -0.734,-0.734 -1.731,-1.145 -2.766,-1.145 -1.039,0 -2.035,0.411 -2.765,1.145 -0.735,0.734 -1.149,1.73 -1.149,2.766 0,1.039 0.414,2.031 1.149,2.765 0.73,0.735 1.726,1.149 2.765,1.149 1.035,0 2.032,-0.414 2.766,-1.149 0.734,-0.734 1.144,-1.726 1.144,-2.765 z"
         style="fill:none;stroke:#000000;stroke-width:0.36;stroke-linecap:square;stroke-linejoin:miter;stroke-miterlimit:3.25;stroke-dasharray:none;stroke-opacity:0.7"
         id="path208" /><path
         d="m 121.852,34.672 c 0,-1.039 -0.414,-2.031 -1.145,-2.766 -0.734,-0.734 -1.73,-1.144 -2.766,-1.144 -1.039,0 -2.035,0.41 -2.765,1.144 -0.735,0.735 -1.149,1.727 -1.149,2.766 0,1.039 0.414,2.031 1.149,2.766 0.73,0.734 1.726,1.144 2.765,1.144 1.036,0 2.032,-0.41 2.766,-1.144 0.731,-0.735 1.145,-1.727 1.145,-2.766 z"
         style="fill:#d95f02;fill-opacity:1;fill-rule:evenodd;stroke:none"
         id="path210" /><path
         d="m 121.852,34.672 c 0,-1.039 -0.414,-2.031 -1.145,-2.766 -0.734,-0.734 -1.73,-1.144 -2.766,-1.144 -1.039,0 -2.035,0.41 -2.765,1.144 -0.735,0.735 -1.149,1.727 -1.149,2.766 0,1.039 0.414,2.031 1.149,2.766 0.73,0.734 1.726,1.144 2.765,1.144 1.036,0 2.032,-0.41 2.766,-1.144 0.731,-0.735 1.145,-1.727 1.145,-2.766 z"
         style="fill:none;stroke:#000000;stroke-width:0.36;stroke-linecap:square;stroke-linejoin:miter;stroke-miterlimit:3.25;stroke-dasharray:none;stroke-opacity:0.7"
         id="path212" /><path
         d="m 159.836,25.988 c 0,-1.035 -0.41,-2.031 -1.145,-2.765 -0.734,-0.735 -1.726,-1.145 -2.765,-1.145 -1.035,0 -2.031,0.41 -2.766,1.145 -0.734,0.734 -1.144,1.73 -1.144,2.765 0,1.039 0.41,2.035 1.144,2.766 0.735,0.734 1.731,1.148 2.766,1.148 1.039,0 2.031,-0.414 2.765,-1.148 0.735,-0.731 1.145,-1.727 1.145,-2.766 z"
         style="fill:#1b9e77;fill-opacity:1;fill-rule:evenodd;stroke:none"
         id="path214" /><path
         d="m 159.836,25.988 c 0,-1.035 -0.41,-2.031 -1.145,-2.765 -0.734,-0.735 -1.726,-1.145 -2.765,-1.145 -1.035,0 -2.031,0.41 -2.766,1.145 -0.734,0.734 -1.144,1.73 -1.144,2.765 0,1.039 0.41,2.035 1.144,2.766 0.735,0.734 1.731,1.148 2.766,1.148 1.039,0 2.031,-0.414 2.765,-1.148 0.735,-0.731 1.145,-1.727 1.145,-2.766 z"
         style="fill:none;stroke:#000000;stroke-width:0.36;stroke-linecap:square;stroke-linejoin:miter;stroke-miterlimit:3.25;stroke-dasharray:none;stroke-opacity:0.7"
         id="path216" /><path
         d="m 88.586,78.617 c 0,-1.039 -0.41,-2.035 -1.145,-2.765 -0.734,-0.735 -1.726,-1.149 -2.765,-1.149 -1.039,0 -2.031,0.414 -2.766,1.149 -0.734,0.73 -1.144,1.726 -1.144,2.765 0,1.035 0.41,2.031 1.144,2.766 0.735,0.734 1.727,1.144 2.766,1.144 1.039,0 2.031,-0.41 2.765,-1.144 0.735,-0.735 1.145,-1.731 1.145,-2.766 z"
         style="fill:#7570b3;fill-opacity:1;fill-rule:evenodd;stroke:none"
         id="path218" /><path
         d="m 88.586,78.617 c 0,-1.039 -0.41,-2.035 -1.145,-2.765 -0.734,-0.735 -1.726,-1.149 -2.765,-1.149 -1.039,0 -2.031,0.414 -2.766,1.149 -0.734,0.73 -1.144,1.726 -1.144,2.765 0,1.035 0.41,2.031 1.144,2.766 0.735,0.734 1.727,1.144 2.766,1.144 1.039,0 2.031,-0.41 2.765,-1.144 0.735,-0.735 1.145,-1.731 1.145,-2.766 z"
         style="fill:none;stroke:#000000;stroke-width:0.36;stroke-linecap:square;stroke-linejoin:miter;stroke-miterlimit:3.25;stroke-dasharray:none;stroke-opacity:0.7"
         id="path220" /><path
         d="m 161.301,72.406 c 0,-1.039 -0.41,-2.031 -1.145,-2.765 -0.734,-0.735 -1.73,-1.145 -2.765,-1.145 -1.039,0 -2.036,0.41 -2.766,1.145 -0.734,0.734 -1.148,1.726 -1.148,2.765 0,1.035 0.414,2.032 1.148,2.766 0.73,0.734 1.727,1.144 2.766,1.144 1.035,0 2.031,-0.41 2.765,-1.144 0.735,-0.734 1.145,-1.731 1.145,-2.766 z"
         style="fill:#1b9e77;fill-opacity:1;fill-rule:evenodd;stroke:none"
         id="path222" /><path
         d="m 161.301,72.406 c 0,-1.039 -0.41,-2.031 -1.145,-2.765 -0.734,-0.735 -1.73,-1.145 -2.765,-1.145 -1.039,0 -2.036,0.41 -2.766,1.145 -0.734,0.734 -1.148,1.726 -1.148,2.765 0,1.035 0.414,2.032 1.148,2.766 0.73,0.734 1.727,1.144 2.766,1.144 1.035,0 2.031,-0.41 2.765,-1.144 0.735,-0.734 1.145,-1.731 1.145,-2.766 z"
         style="fill:none;stroke:#000000;stroke-width:0.36;stroke-linecap:square;stroke-linejoin:miter;stroke-miterlimit:3.25;stroke-dasharray:none;stroke-opacity:0.7"
         id="path224" /><path
         d="m 114.277,88.516 c 0,-1.036 -0.414,-2.032 -1.148,-2.766 -0.731,-0.734 -1.727,-1.145 -2.766,-1.145 -1.035,0 -2.031,0.411 -2.765,1.145 -0.731,0.734 -1.145,1.73 -1.145,2.766 0,1.039 0.414,2.035 1.145,2.765 0.734,0.735 1.73,1.149 2.765,1.149 1.039,0 2.035,-0.414 2.766,-1.149 0.734,-0.73 1.148,-1.726 1.148,-2.765 z"
         style="fill:#1b9e77;fill-opacity:1;fill-rule:evenodd;stroke:none"
         id="path226" /><path
         d="m 114.277,88.516 c 0,-1.036 -0.414,-2.032 -1.148,-2.766 -0.731,-0.734 -1.727,-1.145 -2.766,-1.145 -1.035,0 -2.031,0.411 -2.765,1.145 -0.731,0.734 -1.145,1.73 -1.145,2.766 0,1.039 0.414,2.035 1.145,2.765 0.734,0.735 1.73,1.149 2.765,1.149 1.039,0 2.035,-0.414 2.766,-1.149 0.734,-0.73 1.148,-1.726 1.148,-2.765 z"
         style="fill:none;stroke:#000000;stroke-width:0.36;stroke-linecap:square;stroke-linejoin:miter;stroke-miterlimit:3.25;stroke-dasharray:none;stroke-opacity:0.7"
         id="path228" /><path
         d="m 11.422,77.156 c 0,-1.039 -0.41,-2.035 -1.145,-2.765 -0.734,-0.735 -1.726,-1.149 -2.765,-1.149 -1.039,0 -2.032,0.414 -2.766,1.149 -0.734,0.73 -1.144,1.726 -1.144,2.765 0,1.035 0.41,2.032 1.144,2.766 0.734,0.734 1.727,1.144 2.766,1.144 1.039,0 2.031,-0.41 2.765,-1.144 0.735,-0.734 1.145,-1.731 1.145,-2.766 z"
         style="fill:#7570b3;fill-opacity:1;fill-rule:evenodd;stroke:none"
         id="path230" /><path
         d="m 11.422,77.156 c 0,-1.039 -0.41,-2.035 -1.145,-2.765 -0.734,-0.735 -1.726,-1.149 -2.765,-1.149 -1.039,0 -2.032,0.414 -2.766,1.149 -0.734,0.73 -1.144,1.726 -1.144,2.765 0,1.035 0.41,2.032 1.144,2.766 0.734,0.734 1.727,1.144 2.766,1.144 1.039,0 2.031,-0.41 2.765,-1.144 0.735,-0.734 1.145,-1.731 1.145,-2.766 z"
         style="fill:none;stroke:#000000;stroke-width:0.36;stroke-linecap:square;stroke-linejoin:miter;stroke-miterlimit:3.25;stroke-dasharray:none;stroke-opacity:0.7"
         id="path232" /><path
         d="m 176.398,76.52 c 0,-1.04 -0.41,-2.032 -1.144,-2.766 -0.734,-0.734 -1.727,-1.145 -2.766,-1.145 -1.039,0 -2.031,0.411 -2.765,1.145 -0.735,0.734 -1.145,1.726 -1.145,2.766 0,1.039 0.41,2.031 1.145,2.765 0.734,0.735 1.726,1.145 2.765,1.145 1.039,0 2.032,-0.41 2.766,-1.145 0.734,-0.734 1.144,-1.726 1.144,-2.765 z"
         style="fill:#1b9e77;fill-opacity:1;fill-rule:evenodd;stroke:none"
         id="path234" /><path
         d="m 176.398,76.52 c 0,-1.04 -0.41,-2.032 -1.144,-2.766 -0.734,-0.734 -1.727,-1.145 -2.766,-1.145 -1.039,0 -2.031,0.411 -2.765,1.145 -0.735,0.734 -1.145,1.726 -1.145,2.766 0,1.039 0.41,2.031 1.145,2.765 0.734,0.735 1.726,1.145 2.765,1.145 1.039,0 2.032,-0.41 2.766,-1.145 0.734,-0.734 1.144,-1.726 1.144,-2.765 z"
         style="fill:none;stroke:#000000;stroke-width:0.36;stroke-linecap:square;stroke-linejoin:miter;stroke-miterlimit:3.25;stroke-dasharray:none;stroke-opacity:0.7"
         id="path236" /><path
         d="m 141.984,23.551 c 0,-1.039 -0.41,-2.035 -1.144,-2.766 -0.735,-0.734 -1.731,-1.148 -2.766,-1.148 -1.039,0 -2.035,0.414 -2.765,1.148 -0.735,0.731 -1.149,1.727 -1.149,2.766 0,1.035 0.414,2.031 1.149,2.765 0.73,0.731 1.726,1.145 2.765,1.145 1.035,0 2.031,-0.414 2.766,-1.145 0.734,-0.734 1.144,-1.73 1.144,-2.765 z"
         style="fill:#1b9e77;fill-opacity:1;fill-rule:evenodd;stroke:none"
         id="path238" /><path
         d="m 141.984,23.551 c 0,-1.039 -0.41,-2.035 -1.144,-2.766 -0.735,-0.734 -1.731,-1.148 -2.766,-1.148 -1.039,0 -2.035,0.414 -2.765,1.148 -0.735,0.731 -1.149,1.727 -1.149,2.766 0,1.035 0.414,2.031 1.149,2.765 0.73,0.731 1.726,1.145 2.765,1.145 1.035,0 2.031,-0.414 2.766,-1.145 0.734,-0.734 1.144,-1.73 1.144,-2.765 z"
         style="fill:none;stroke:#000000;stroke-width:0.36;stroke-linecap:square;stroke-linejoin:miter;stroke-miterlimit:3.25;stroke-dasharray:none;stroke-opacity:0.7"
         id="path240" /><path
         d="m 68.25,24.605 c 0,-1.039 -0.414,-2.035 -1.148,-2.765 -0.731,-0.735 -1.727,-1.149 -2.766,-1.149 -1.035,0 -2.031,0.414 -2.766,1.149 -0.734,0.73 -1.144,1.726 -1.144,2.765 0,1.036 0.41,2.032 1.144,2.766 0.735,0.734 1.731,1.145 2.766,1.145 1.039,0 2.035,-0.411 2.766,-1.145 0.734,-0.734 1.148,-1.73 1.148,-2.766 z"
         style="fill:#7570b3;fill-opacity:1;fill-rule:evenodd;stroke:none"
         id="path242" /><path
         d="m 68.25,24.605 c 0,-1.039 -0.414,-2.035 -1.148,-2.765 -0.731,-0.735 -1.727,-1.149 -2.766,-1.149 -1.035,0 -2.031,0.414 -2.766,1.149 -0.734,0.73 -1.144,1.726 -1.144,2.765 0,1.036 0.41,2.032 1.144,2.766 0.735,0.734 1.731,1.145 2.766,1.145 1.039,0 2.035,-0.411 2.766,-1.145 0.734,-0.734 1.148,-1.73 1.148,-2.766 z"
         style="fill:none;stroke:#000000;stroke-width:0.36;stroke-linecap:square;stroke-linejoin:miter;stroke-miterlimit:3.25;stroke-dasharray:none;stroke-opacity:0.7"
         id="path244" /></g></g></svg>
